<?xml version="1.0" encoding="UTF-8" standalone="no"?>
<svg width="334px" height="68px" viewBox="0 0 334 68" version="1.1" xmlns="http://www.w3.org/2000/svg" xmlns:xlink="http://www.w3.org/1999/xlink" xmlns:sketch="http://www.bohemiancoding.com/sketch/ns">
    <!-- Generator: Sketch 3.3.3 (12081) - http://www.bohemiancoding.com/sketch -->
    <title>ALEXANDRIA LIBRARIAN</title>
    <desc>Created with Sketch.</desc>
    <defs></defs>
    <g id="Page-1" stroke="none" stroke-width="1" fill="none" fill-rule="evenodd" sketch:type="MSPage">
        <g id="Artboard-1" sketch:type="MSArtboardGroup" transform="translate(-185.000000, -229.000000)" fill="#B7C0C4">
            <g id="drawer-grey" sketch:type="MSLayerGroup" transform="translate(162.000000, 206.000000)">
                <g id="drawer-contents" transform="translate(0.000000, 23.000000)" sketch:type="MSShapeGroup">
                    <path d="M312.41588,0.0149853659 L315.415905,0.0149853659 L315.415905,31.8439024 L312.41588,31.8439024 L312.41588,0.0149853659 Z M287.868367,16.7439966 L296.9107,31.8439024 L300.31982,31.8439024 L290.956104,16.5588293 C291.834904,16.4389457 292.759145,16.2291528 293.728854,15.9294439 C294.698564,15.629735 295.584928,15.172686 296.387968,14.5582829 C297.19101,13.9438799 297.857676,13.1421708 298.387985,12.1531317 C298.918296,11.1640926 299.183447,9.90533448 299.183447,8.37681951 C299.183447,6.99815895 298.956175,5.82931211 298.501623,4.8702439 C298.047072,3.9111757 297.471314,3.11695925 296.774335,2.48757073 C296.077356,1.85818221 295.289479,1.37865531 294.410678,1.04897561 C293.531878,0.719295913 292.668244,0.479532457 291.819747,0.329678049 C290.97125,0.179823641 290.183373,0.089912345 289.456091,0.0599414634 C288.728809,0.0299705819 288.153052,0.0149853659 287.728803,0.0149853659 L279.274186,0.0149853659 L279.274186,31.8439024 L282.274211,31.8439024 L282.274211,16.7386537 L282.276475,16.7386537 L282.276475,14.0412878 L282.274211,14.0412878 L282.274211,2.71235122 L288.637902,2.71235122 C290.213681,2.71235122 291.493982,2.90715902 292.478844,3.29678049 C293.463705,3.68640195 294.228856,4.16592887 294.774318,4.73537561 C295.31978,5.30482235 295.690992,5.91921622 295.887964,6.57857561 C296.084937,7.237935 296.183421,7.83734364 296.183421,8.37681951 C296.183421,8.91629538 296.084937,9.51570402 295.887964,10.1750634 C295.690992,10.8344228 295.31978,11.4488167 294.774318,12.0182634 C294.228856,12.5877102 293.463705,13.0672371 292.478844,13.4568585 C291.493982,13.84648 290.213681,14.0412878 288.637902,14.0412878 L287.868367,14.0412878 L287.868367,16.7439966 Z M238.996067,0.0149853659 L248.950698,0.0149853659 C251.738614,0.0149853659 254.102247,0.352152726 256.041667,1.02649756 C257.981087,1.7008424 259.594722,2.56249232 260.882618,3.61147317 C262.170514,4.66045403 263.185665,5.82180827 263.928098,7.09557073 C264.670532,8.3693332 265.215986,9.59062831 265.564476,10.7594927 C265.912965,11.9283571 266.132663,12.9848148 266.223572,13.9288976 C266.314482,14.8729803 266.359937,15.5398224 266.359937,15.9294439 C266.359937,16.3190653 266.314482,16.9859075 266.223572,17.9299902 C266.132663,18.874073 265.912965,19.9305308 265.564476,21.0993951 C265.215986,22.2682594 264.670532,23.4895546 263.928098,24.7633171 C263.185665,26.0370796 262.170514,27.1984337 260.882618,28.2474146 C259.594722,29.2963956 257.981087,30.1580453 256.041667,30.8323902 C254.102247,31.5067351 251.738614,31.8439024 248.950698,31.8439024 L238.996067,31.8439024 L238.996067,0.0149853659 Z M241.996093,29.1465366 L248.177964,29.1465366 C250.299205,29.1465366 252.28405,28.8842953 254.13256,28.3598049 C255.98107,27.8353144 257.587129,27.0336055 258.950783,25.9546537 C260.314437,24.8757019 261.390195,23.5045546 262.178083,21.8411707 C262.965974,20.1777868 263.359912,18.2072309 263.359912,15.9294439 C263.359912,13.6516569 262.965974,11.681101 262.178083,10.0177171 C261.390195,8.35433314 260.314437,6.98318589 258.950783,5.90423415 C257.587129,4.8252824 255.98107,4.02357335 254.13256,3.49908293 C252.28405,2.9745925 250.299205,2.71235122 248.177964,2.71235122 L241.996093,2.71235122 L241.996093,29.1465366 Z M197.854305,0.0149853659 L201.717975,0.0149853659 L221.309051,27.8877659 L221.399961,27.8877659 L221.399961,0.0149853659 L224.399986,0.0149853659 L224.399986,31.8439024 L220.536317,31.8439024 L200.945241,3.97112195 L200.854331,3.97112195 L200.854331,31.8439024 L197.854305,31.8439024 L197.854305,0.0149853659 Z M183.762848,31.8439024 L187.030984,31.8439024 L173.485413,0.0149853659 L170.394478,0.0149853659 L156.348903,31.8439024 L159.441339,31.8439024 L171.809798,3.2938979 L183.762848,31.8439024 Z M134.298213,15.1202341 L123.298119,0.0149853659 L126.843604,0.0149853659 L136.11641,12.9623415 L145.252852,0.0149853659 L148.843791,0.0149853659 L137.934607,15.1202341 L149.889255,31.8439024 L146.16195,31.8439024 L135.980045,17.4579512 L125.79814,31.8439024 L122.2072,31.8439024 L134.298213,15.1202341 Z M96.4885553,0.0149853659 L113.111166,0.0149853659 L113.111166,2.71235122 L96.4885553,2.71235122 L96.4885553,0.0149853659 Z M96.4885553,14.0412878 L112.065703,14.0412878 L112.065703,16.7386537 L96.4885553,16.7386537 L96.4885553,14.0412878 L96.4885553,14.0412878 Z M96.4885553,29.1465366 L113.838445,29.1465366 L113.838445,31.8439024 L96.4885553,31.8439024 L96.4885553,29.1465366 Z M64.5147947,0.0149853659 L67.5148203,0.0149853659 L67.5148203,29.1465366 L82.5149483,29.1465366 L82.5149483,31.8439024 L64.5147947,31.8439024 L64.5147947,0.0149853659 Z M50.3452963,31.8439024 L53.6914729,31.8439024 L40.1459027,0.0149853659 L37.0549672,0.0149853659 L23.0093928,31.8439024 L26.1457832,31.8439024 L29.7821779,23.3921561 L29.7933814,23.3921561 L36.0174238,8.94201158 L38.4640702,3.25182439 L45.7368595,20.6947902 L45.7115722,20.6947902 L50.3452963,31.8439024 Z M353.617585,31.8439024 L356.921308,31.8439024 L343.375738,0.0149853659 L340.284803,0.0149853659 L326.239228,31.8439024 L329.375619,31.8439024 L333.012013,23.3921561 L333.04783,23.3921561 L341.699928,3.32204583 L353.617585,31.8439024 Z M113.945312,68 L99.25,68 L99.25,42.6347656 L100.638672,42.6347656 L100.638672,66.7167969 L113.945312,66.7167969 L113.945312,68 Z M121.25,68 L121.25,42.6347656 L122.638672,42.6347656 L122.638672,68 L121.25,68 Z M131.138672,68 L131.138672,42.6347656 L139.681641,42.6347656 C140.783209,42.6347656 141.788081,42.7841782 142.696289,43.0830078 C143.604497,43.3818374 144.383786,43.8007786 145.03418,44.3398438 C145.684574,44.8789089 146.188475,45.5292931 146.545898,46.2910156 C146.903322,47.0527382 147.082031,47.8906204 147.082031,48.8046875 C147.082031,49.5664101 146.964845,50.2753873 146.730469,50.9316406 C146.496093,51.5878939 146.159182,52.1738255 145.719727,52.6894531 C145.280271,53.2050807 144.752933,53.6415998 144.137695,53.9990234 C143.522458,54.3564471 142.839848,54.605468 142.089844,54.7460938 L142.089844,54.8515625 C142.980473,54.945313 143.812496,55.159178 144.585938,55.4931641 C145.359379,55.8271501 146.030271,56.2665988 146.598633,56.8115234 C147.166995,57.356448 147.612303,58.0009728 147.93457,58.7451172 C148.256838,59.4892615 148.417969,60.3183548 148.417969,61.2324219 C148.417969,62.2753958 148.221682,63.2128865 147.829102,64.0449219 C147.436521,64.8769573 146.871097,65.5859346 146.132812,66.171875 C145.394528,66.7578154 144.498052,67.2089828 143.443359,67.5253906 C142.388667,67.8417985 141.199225,68 139.875,68 L131.138672,68 Z M132.527344,54.3242188 L139.136719,54.3242188 C140.132817,54.3242188 141.032223,54.1982434 141.834961,53.9462891 C142.637699,53.6943347 143.323239,53.3339867 143.891602,52.8652344 C144.459964,52.396482 144.899413,51.8281283 145.209961,51.1601562 C145.520509,50.4921842 145.675781,49.7421917 145.675781,48.9101562 C145.675781,48.1484337 145.529298,47.4570344 145.236328,46.8359375 C144.943358,46.2148406 144.527346,45.6875022 143.988281,45.2539062 C143.449216,44.8203103 142.798832,44.4863293 142.037109,44.2519531 C141.275387,44.017577 140.419927,43.9003906 139.470703,43.9003906 L132.527344,43.9003906 L132.527344,54.3242188 Z M139.734375,66.734375 C140.871099,66.734375 141.89062,66.60547 142.792969,66.3476562 C143.695317,66.0898425 144.459958,65.7207055 145.086914,65.2402344 C145.71387,64.7597632 146.191405,64.1796909 146.519531,63.5 C146.847658,62.8203091 147.011719,62.0527387 147.011719,61.1972656 C147.011719,60.318355 146.838869,59.5332066 146.493164,58.8417969 C146.147459,58.1503872 145.646488,57.5615259 144.990234,57.0751953 C144.333981,56.5888648 143.534184,56.2167982 142.59082,55.9589844 C141.647456,55.7011706 140.572272,55.5722656 139.365234,55.5722656 L132.527344,55.5722656 L132.527344,66.734375 L139.734375,66.734375 Z M157.005859,55.90625 L163.808594,55.90625 C164.875005,55.90625 165.827144,55.7685561 166.665039,55.4931641 C167.502934,55.2177721 168.214841,54.8222682 168.800781,54.3066406 C169.386722,53.791013 169.834959,53.1640662 170.145508,52.4257812 C170.456056,51.6874963 170.611328,50.8496141 170.611328,49.9121094 C170.611328,48.9628859 170.453127,48.1162147 170.136719,47.3720703 C169.820311,46.627926 169.369144,45.9980495 168.783203,45.4824219 C168.197263,44.9667943 167.482426,44.5742201 166.638672,44.3046875 C165.794918,44.0351549 164.839849,43.9003906 163.773438,43.9003906 L157.005859,43.9003906 L157.005859,55.90625 Z M157.005859,68 L155.617188,68 L155.617188,42.6347656 L163.896484,42.6347656 C165.150397,42.6347656 166.281245,42.8017561 167.289062,43.1357422 C168.29688,43.4697282 169.15234,43.9501922 169.855469,44.5771484 C170.558597,45.2041047 171.097654,45.9658158 171.472656,46.8623047 C171.847658,47.7587935 172.035156,48.7636663 172.035156,49.8769531 C172.035156,50.7910202 171.903322,51.6376914 171.639648,52.4169922 C171.375975,53.196293 170.99219,53.8876923 170.488281,54.4912109 C169.984372,55.0947296 169.369144,55.6015604 168.642578,56.0117188 C167.916012,56.4218771 167.089848,56.7207022 166.164062,56.9082031 L172.685547,68 L171.050781,68 L164.705078,57.1191406 C164.58789,57.1425782 164.441407,57.1572265 164.265625,57.1630859 C164.089843,57.1689453 163.937501,57.171875 163.808594,57.171875 L157.005859,57.171875 L157.005859,68 Z M194.017578,59.5449219 L182.609375,59.5449219 L179.462891,68 L177.951172,68 L187.619141,42.6347656 L189.025391,42.6347656 L198.675781,68 L197.181641,68 L194.017578,59.5449219 Z M183.066406,58.296875 L193.578125,58.296875 L188.357422,44.4453125 L188.269531,44.4453125 L183.066406,58.296875 Z M206.683594,55.90625 L213.486328,55.90625 C214.55274,55.90625 215.504879,55.7685561 216.342773,55.4931641 C217.180668,55.2177721 217.892575,54.8222682 218.478516,54.3066406 C219.064456,53.791013 219.512694,53.1640662 219.823242,52.4257812 C220.133791,51.6874963 220.289062,50.8496141 220.289062,49.9121094 C220.289062,48.9628859 220.130861,48.1162147 219.814453,47.3720703 C219.498045,46.627926 219.046878,45.9980495 218.460938,45.4824219 C217.874997,44.9667943 217.16016,44.5742201 216.316406,44.3046875 C215.472652,44.0351549 214.517583,43.9003906 213.451172,43.9003906 L206.683594,43.9003906 L206.683594,55.90625 Z M206.683594,68 L205.294922,68 L205.294922,42.6347656 L213.574219,42.6347656 C214.828131,42.6347656 215.958979,42.8017561 216.966797,43.1357422 C217.974614,43.4697282 218.830075,43.9501922 219.533203,44.5771484 C220.236332,45.2041047 220.775389,45.9658158 221.150391,46.8623047 C221.525393,47.7587935 221.712891,48.7636663 221.712891,49.8769531 C221.712891,50.7910202 221.581056,51.6376914 221.317383,52.4169922 C221.05371,53.196293 220.669924,53.8876923 220.166016,54.4912109 C219.662107,55.0947296 219.046879,55.6015604 218.320312,56.0117188 C217.593746,56.4218771 216.767583,56.7207022 215.841797,56.9082031 L222.363281,68 L220.728516,68 L214.382812,57.1191406 C214.265624,57.1425782 214.119142,57.1572265 213.943359,57.1630859 C213.767577,57.1689453 213.615235,57.171875 213.486328,57.171875 L206.683594,57.171875 L206.683594,68 Z M229.509766,68 L229.509766,42.6347656 L230.898437,42.6347656 L230.898437,68 L229.509766,68 Z M253.583984,59.5449219 L242.175781,59.5449219 L239.029297,68 L237.517578,68 L247.185547,42.6347656 L248.591797,42.6347656 L258.242188,68 L256.748047,68 L253.583984,59.5449219 Z M242.632812,58.296875 L253.144531,58.296875 L247.923828,44.4453125 L247.835938,44.4453125 L242.632812,58.296875 Z M264.861328,68 L264.861328,42.6347656 L266.302734,42.6347656 L282.457031,65.46875 L282.5625,65.46875 L282.5625,42.6347656 L283.951172,42.6347656 L283.951172,68 L282.632812,68 L266.337891,45.0253906 L266.232422,45.0253906 L266.232422,68 L264.861328,68 Z" id="ALEXANDRIA-LIBRARIAN"></path>
                </g>
            </g>
        </g>
    </g>
</svg>